<svg xmlns="http://www.w3.org/2000/svg" viewBox="0 0 100 100" x="0px" y="0px" class="icon">
<path d="M18.1152 19.1673C11.1476 19.7147 5.88113 25.3804 5.54195
 32.3612C5.2625 38.1129 5 44.7316 5 49.3006C5 53.9219 5.26854 60.6401 5.55155 66.4372C5.888 73.3287 11.0339
  78.9567 17.9044 79.591C25.5099 80.2933 36.5142 81 50 81C63.4507 81 74.4329 80.2969 82.0362 79.5965C88.9333
   78.9611 94.0894 73.2967 94.4213 66.3783C94.714 60.2748 95 53.2911 95 49.3006C95 45.353 94.7201 38.4759
    94.4307 32.4196C94.0958 25.4118 88.821 19.7109 81.8267 19.1627C74.3405 18.576 63.5426 18 50 18C36.4223
     18 25.6036 18.579 18.1152 19.1673ZM41 35.943L64.2 49.3006L41 62.6582V35.943Z" fill="var(--text)"/>
</svg>